<?xml version="1.0" encoding="UTF-8"?>
<svg id="Layer_1" xmlns="http://www.w3.org/2000/svg" version="1.1" viewBox="0 0 889.4 593.1">
  <!-- Generator: Adobe Illustrator 29.3.1, SVG Export Plug-In . SVG Version: 2.1.0 Build 151)  -->
  <path d="M582.1-462.4l2.1,2.3,2.5-1.9c28.9-22.5,70.9-14.6,89.7,16.8l1.6,2.7,2.8-1.4c32.5-16.8,72.4-1.3,85.1,33l1.1,2.9,3-.9c35-10.5,71.4,12,77.6,48l.5,3.1,3.1-.3c36.4-3.9,68,24.9,67.4,61.5v3.1s3.1.2,3.1.2c36.5,2.8,62.2,36.9,55,72.8l-.6,3.1,3,.8c35.3,9.5,54.4,47.8,40.7,81.7l-1.2,2.9,2.8,1.4c33,15.8,44.7,56.9,25,87.7l-1.7,2.6,2.5,1.8c29.5,21.6,33.5,64.2,8.4,90.8l-2.1,2.3,2.1,2.3c25,26.7,21.1,69.2-8.4,90.8l-2.5,1.8,1.7,2.6c19.7,30.8,8,71.9-25,87.7l-2.8,1.4,1.2,2.9c13.7,33.9-5.3,72.2-40.7,81.7l-3,.8.6,3.1c7.3,35.8-18.5,70-55,72.8l-3.1.2v3.1c.6,36.6-31,65.4-67.4,61.5l-3.1-.3-.5,3.1c-6.2,36-42.5,58.5-77.6,48l-3-.9-1.1,2.9c-12.7,34.3-52.6,49.7-85.1,33l-2.8-1.4-1.6,2.7c-18.8,31.4-60.8,39.2-89.7,16.8l-2.5-1.9-2.1,2.3c-24.2,27.4-67,27.4-91.2,0l-2.1-2.3-2.5,1.9c-28.9,22.5-70.9,14.6-89.7-16.8l-1.6-2.7-2.8,1.4c-32.5,16.8-72.4,1.3-85.1-33l-1.1-2.9-3,.9c-35,10.5-71.4-12-77.6-48l-.5-3.1-3.1.3c-36.4,3.9-68-24.9-67.4-61.5v-3.1s-3.1-.2-3.1-.2c-36.5-2.8-62.2-36.9-55-72.8l.6-3.1-3-.8c-35.3-9.5-54.4-47.8-40.7-81.7l1.2-2.9-2.8-1.4c-33-15.8-44.7-56.9-25-87.7l1.7-2.6-2.5-1.8C-3.6,126-7.5,83.5,17.5,56.8l2.1-2.3-2.1-2.3C-7.5,25.6-3.6-17,25.9-38.6l2.5-1.8-1.7-2.6c-19.7-30.8-8-71.9,25-87.7l2.8-1.4-1.2-2.9c-13.7-33.9,5.3-72.2,40.7-81.7l3-.8-.6-3.1c-7.3-35.8,18.5-70,55-72.8l3.1-.2v-3.1c-.6-36.6,31-65.4,67.4-61.5l3.1.3.5-3.1c6.2-36,42.5-58.5,77.6-48l3,.9,1.1-2.9c12.7-34.3,52.6-49.7,85.1-33l2.8,1.4,1.6-2.7c18.8-31.4,60.8-39.2,89.7-16.8l2.5,1.9,2.1-2.3c24.2-27.4,67-27.4,91.2,0Z"/>
</svg>