<?xml version="1.0" encoding="UTF-8"?>
<svg id="Layer_1" xmlns="http://www.w3.org/2000/svg" version="1.1" viewBox="0 0 1250.8 1247.2">
  <!-- Generator: Adobe Illustrator 29.3.1, SVG Export Plug-In . SVG Version: 2.1.0 Build 151)  -->
  <path d="M678.9,31.4h0s0,0,0,0c33.6-27.1,83.4-18.1,105.3,19.1h0s0,0,0,0c37.9-20.7,85.3-2.9,100.2,37.6h0s0,0,0,0c41-13.6,84.4,12.4,91.8,54.9h0s0,0,0,0c42.7-6.1,80.9,27.2,80.6,70.4h0s0,0,0,0c43.1,1.6,74.7,41.2,66.7,83.6h0s0,0,0,0c42.1,9.3,66.1,53.9,50.7,94.2h0s0,0,0,0c39.8,16.7,55.4,64.9,33.1,101.8h0s0,0,0,0c36.2,23.5,43,73.7,14.4,106h0s0,0,0,0c31.4,29.6,29.1,80.2-4.8,106.9h0s0,0,0,0c25.6,34.7,14.3,84.1-23.8,104.3h0s0,0,0,0c19,38.8-.9,85.3-42.1,98.4h0s0,0,0,0c11.8,41.5-16.1,83.8-58.9,89.3h0s0,0,0,0c4.2,43-30.8,79.6-73.9,77.3h0s0,0,0,0c-3.6,43-44.6,72.8-86.6,62.9h0s0,0,0,0c-11.2,41.7-56.8,63.7-96.4,46.4h0s0,0,0,0c-18.5,39-67.3,52.5-103.1,28.5h0s0,0,0,0c-25.1,35.1-75.6,39.6-106.6,9.6h0s0,0,0,0c-31,30-81.4,25.5-106.6-9.6h0s0,0,0,0c-35.9,24-84.7,10.5-103.1-28.5h0s0,0,0,0c-39.6,17.2-85.2-4.7-96.4-46.4h0s0,0,0,0c-42,9.9-83-19.9-86.6-62.9h0s0,0,0,0c-43.1,2.2-78.1-34.4-73.9-77.3h0s0,0,0,0c-42.8-5.5-70.7-47.8-58.9-89.3h0s0,0,0,0c-41.1-13.1-61-59.6-42.1-98.4h0s0,0,0,0c-38.1-20.2-49.4-69.6-23.8-104.3h0s0,0,0,0c-33.9-26.7-36.2-77.3-4.8-106.9h0s0,0,0,0c-28.6-32.3-21.8-82.5,14.4-106h0s0,0,0,0c-22.4-36.9-6.7-85.1,33.1-101.8h0s0,0,0,0c-15.4-40.3,8.6-84.9,50.7-94.2h0s0,0,0,0c-8-42.4,23.6-82,66.7-83.6h0,0c-.3-43.2,37.8-76.5,80.6-70.4h0s0,0,0,0c7.4-42.5,50.9-68.5,91.8-54.9h0s0,0,0,0c14.9-40.5,62.3-58.3,100.2-37.6h0s0,0,0,0c21.9-37.2,71.7-46.2,105.3-19.1h0s0,0,0,0c28.2-32.7,78.8-32.7,107,0Z"/>
</svg>