<?xml version="1.0" encoding="UTF-8"?>
<svg id="Layer_1" xmlns="http://www.w3.org/2000/svg" version="1.1" viewBox="0 0 1250.8 1247.2">
  <!-- Generator: Adobe Illustrator 29.3.1, SVG Export Plug-In . SVG Version: 2.1.0 Build 151)  -->
  <path d="M677.8,81.2l1.1,1.3,1.7-1.3c33.2-25.5,81.1-16.8,103.2,18.8l.4.7,2.5-1.3c37-19.3,82.6-2.1,97.6,36.9v.2c0,0,4.3-1.3,4.3-1.3,39-12.4,80.1,12.3,87.5,52.6l.2,1,5.5-.7c39.9-5.4,75.4,25.8,75.1,66.1v1.7s6.1.2,6.1.2c39.8,1.4,68.8,38.1,61.1,77.1l-.4,2.3,5.9,1.2c38.7,8.1,60.6,49.2,45.9,85.9l-1,2.6,4.9,1.9c36.7,14.7,51,59.1,29.8,92.4l-1.6,2.5,3.4,2.1c33.8,20.9,40.1,67.6,13,96.7l-2,2.2,2.1,1.9c29.8,26.7,27.7,74-4.4,97.9l-2.6,1.9,1.8,2.4c24.3,31.3,13.9,77-21.5,94.8l-4.2,2.1,1.3,2.6c18.1,35.1-.1,78-37.9,89.4l-5.5,1.6.7,2.5c11.3,38-14.3,77-53.6,81.8l-6.1.7.2,2c4.1,39.8-28.3,73.9-68.2,71.9l-5.9-.3v1.3c-3.6,40.4-42,68.5-81.6,59.6l-4.9-1.1-.2.6c-11.2,39.8-54.7,60.8-92.9,45l-3.4-1.4v.2c-18.8,37.6-65.9,50.7-101.3,28.1l-1.8-1.2-.8,1c-25.1,33.4-73.6,37.8-104.3,9.4l-1.5-1.4-1.5,1.4c-30.7,28.3-79.2,24-104.3-9.4l-.8-1-1.8,1.2c-35.4,22.6-82.5,9.5-101.2-28.1v-.2c0,0-3.5,1.4-3.5,1.4-38.2,15.8-81.6-5.2-92.9-45l-.2-.6-4.9,1.1c-39.6,8.9-78-19.2-81.5-59.6v-1.3c-.1,0-6,.3-6,.3-40,2-72.3-32.1-68.2-71.9l.2-2-6.1-.7c-39.3-4.8-64.9-43.8-53.6-81.8l.7-2.5-5.5-1.6c-37.8-11.4-56-54.3-37.9-89.4l1.3-2.6-4.2-2.1c-35.4-17.8-45.7-63.5-21.5-94.8l1.8-2.4-2.6-1.9c-32-24-34.1-71.2-4.4-97.9l2.1-1.9-2-2.2c-27.1-29.1-20.8-75.7,13-96.7l3.4-2.1-1.6-2.5c-21.2-33.3-6.9-77.8,29.8-92.4l4.9-1.9-1-2.6c-14.8-36.7,7.2-77.8,45.9-85.9l5.9-1.2-.4-2.3c-7.7-39,21.3-75.7,61.1-77.1l6.1-.2v-1.7c-.3-40.3,35.1-71.5,75.1-66.1l5.5.7.2-1c7.4-40.3,48.4-65,87.5-52.6l4.2,1.3v-.2c15.1-38.9,60.7-56.1,97.7-36.9l2.5,1.3.4-.7c22-35.6,70-44.4,103.2-18.8l1.7,1.3,1.1-1.3c28-31,76.7-31,104.7,0Z"/>
</svg>