<?xml version="1.0" encoding="UTF-8"?>
<svg id="Layer_1" xmlns="http://www.w3.org/2000/svg" version="1.1" viewBox="0 0 1239.3 1137">
  <!-- Generator: Adobe Illustrator 29.3.1, SVG Export Plug-In . SVG Version: 2.1.0 Build 151)  -->
  <path d="M669.2,22.2l2.1,2.2,3-2.3c32.8-24.3,79.4-15.8,101.5,18.6l.8,1.2,4-2c36.5-18.3,80.9-1.5,96.2,36.5h0s5.7-1.7,5.7-1.7c38.5-11.7,78.6,12.5,86.1,52h0s6.7-.9,6.7-.9c39.4-5.1,74.2,25.7,73.9,65.4h0s6.6.2,6.6.2c39.4,1.4,68.1,37.8,60.1,76.4h0s5.5,1.1,5.5,1.1c38.6,7.8,60.3,48.9,45.2,85.2h0s3.7,1.4,3.7,1.4c36.9,14.2,51.2,58.9,29.4,91.8h0s1.5.9,1.5.9c34.3,20.4,40.6,67.5,12.8,96.2h0s0,0,0,0c30.4,26.3,28.3,74.1-4.3,97.6l-.5.4h0c24.9,30.9,14.5,77-21.2,94.3l-2.6,1.3h0c18.6,34.7.5,77.8-37.4,88.8l-4.7,1.4h0c11.6,37.6-13.7,76.5-52.8,81.1l-6.2.7h0c4.2,39.3-27.7,73.1-67.2,71.2l-6.8-.3h0c-3.6,39.8-41.2,67.4-80.2,59l-6.3-1.4h0c-11.4,38.9-53.8,59.5-91.5,44.5l-4.9-2-.2.3c-18.8,36.5-64.7,49.3-99.7,27.8l-3.3-2-1.4,1.8c-25.1,32.1-72.1,36.4-102.5,9.3l-2.6-2.3-2.6,2.3c-30.5,27.1-77.4,22.8-102.5-9.3l-1.4-1.8-3.3,2c-35,21.5-80.9,8.7-99.7-27.8l-.2-.3-4.9,2c-37.6,15-80.1-5.6-91.5-44.5h0s-6.3,1.4-6.3,1.4c-39,8.4-76.6-19.2-80.2-59h0s-6.8.3-6.8.3c-39.5,1.9-71.3-31.9-67.2-71.2h0s-6.2-.7-6.2-.7c-39.1-4.6-64.4-43.5-52.8-81.1h0s-4.7-1.4-4.7-1.4c-37.8-11-55.9-54-37.4-88.8h0s-2.6-1.3-2.6-1.3c-35.7-17.3-46.1-63.4-21.2-94.3h0s-.5-.4-.5-.4c-32.6-23.5-34.7-71.3-4.3-97.6h0s0,0,0,0c-27.8-28.7-21.5-75.8,12.8-96.2l1.5-.9h0c-21.8-33-7.5-77.6,29.4-91.8l3.7-1.4h0c-15.2-36.3,6.6-77.4,45.2-85.2l5.5-1.1h0c-7.9-38.6,20.7-75,60.1-76.4l6.6-.2h0c-.3-39.7,34.5-70.5,73.9-65.4l6.7.9h0c7.5-39.5,47.7-63.7,86.1-52l5.7,1.7h0c15.2-37.9,59.6-54.8,96.2-36.5l4,2,.8-1.2c22.1-34.4,68.6-42.9,101.5-18.6l3,2.3,2.1-2.2c27.9-29.7,75-29.7,102.9,0Z"/>
</svg>