<?xml version="1.0" encoding="UTF-8"?>
<svg id="Layer_1" xmlns="http://www.w3.org/2000/svg" version="1.1" viewBox="0 0 1110.3 27">
  <!-- Generator: Adobe Illustrator 29.3.1, SVG Export Plug-In . SVG Version: 2.1.0 Build 151)  -->
  <defs>
    <style>
      .st0 {
        fill: #fff;
        stroke: #000;
        stroke-miterlimit: 10;
      }
    </style>
  </defs>
  <g id="Layer_11" data-name="Layer_1">
    <path class="st0" d="M38.3-21.8"/>
    <path d="M1978.8,27.1l-.3-.3c-34-34-89.1-34-123.2,0l-.3.3-.3-.3c-34-34-89.1-34-123.2,0l-.3.3-.3-.3c-34-34-89.1-34-123.2,0l-.3.3-.3-.3c-34-34-89.1-34-123.2,0h0c-34-34-89.1-34-123.2,0l-.3.3-.3-.3c-34-34-89.1-34-123.2,0l-.3.3-.3-.3c-34-34-89.1-34-123.2,0l-.3.3-.3-.3c-34-34-89.1-34-123.2,0l-.3.3-.3-.3c-34-34-89.1-34-123.2,0l-.3.3-.3-.3c-34-34-89.1-34-123.2,0l-.3.3-.3-.3c-34-34-89.1-34-123.2,0l-.3.3-.3-.3c-34-34-89.1-34-123.1,0h0c-34-34-89.1-34-123.1,0l-.3.3-.3-.3c-34-34-89.1-34-123.1,0l-.3.3-.3-.3c-34-34-89.1-34-123.2,0l-.3.3-.3-.3C89.4-7.2,34.3-7.2.3,26.8l-.3.3"/>
  </g>
</svg>