<?xml version="1.0" encoding="UTF-8"?>
<svg id="Layer_1" xmlns="http://www.w3.org/2000/svg" version="1.1" viewBox="0 0 371 25.7">
  <!-- Generator: Adobe Illustrator 29.3.1, SVG Export Plug-In . SVG Version: 2.1.0 Build 151)  -->
  <defs>
    <style>
      .st0 {
        fill: #fff;
        stroke: #000;
        stroke-miterlimit: 10;
      }
    </style>
  </defs>
  <g id="Layer_11">
    <path class="st0" d="M38.3-23.1"/>
    <path d="M1978.8,25.8l-.3-.3c-34-34-89.1-34-123.2,0l-.3.3-.3-.3c-34-34-89.1-34-123.2,0l-.3.3-.3-.3c-34-34-89.1-34-123.2,0l-.3.3-.3-.3c-34-34-89.1-34-123.2,0h0c-34-34-89.1-34-123.2,0l-.3.3-.3-.3c-34-34-89.1-34-123.2,0l-.3.3-.3-.3c-34-34-89.1-34-123.2,0l-.3.3-.3-.3c-34-34-89.1-34-123.2,0l-.3.3-.3-.3c-34-34-89.1-34-123.2,0l-.3.3-.3-.3c-34-34-89.1-34-123.2,0l-.3.3-.3-.3c-34-34-89.1-34-123.2,0l-.3.3-.3-.3c-34-34-89.1-34-123.1,0h0c-34-34-89.1-34-123.1,0l-.3.3-.3-.3c-34-34-89.1-34-123.1,0l-.3.3-.3-.3c-34-34-89.1-34-123.2,0l-.3.3-.3-.3c-33.6-34-88.7-34-122.7,0l-.3.3"/>
  </g>
</svg>